<?xml version="1.0" standalone="no"?>
<!DOCTYPE svg PUBLIC "-//W3C//DTD SVG 20010904//EN"
 "http://www.w3.org/TR/2001/REC-SVG-20010904/DTD/svg10.dtd">
<svg version="1.0" xmlns="http://www.w3.org/2000/svg"
 width="175.000000pt" height="171.000000pt" viewBox="0 0 175.000000 171.000000"
 preserveAspectRatio="xMidYMid meet">
<metadata>
Created by potrace 1.10, written by Peter Selinger 2001-2011
</metadata>
<g transform="translate(0.000000,171.000000) scale(0.100000,-0.100000)"
fill="#f8cb60" stroke="none">
<path d="M777 1609 c-293 -40 -542 -244 -638 -521 -163 -477 144 -969 650
-1038 354 -48 713 177 832 522 170 496 -172 1008 -697 1041 -43 3 -110 1 -147
-4z m265 -30 c35 -7 55 -16 51 -22 -3 -6 -1 -7 6 -3 7 4 20 4 29 0 9 -4 23 -8
31 -10 8 -1 17 -7 20 -11 3 -5 22 -14 41 -19 19 -6 34 -16 33 -22 -2 -6 3 -9
10 -6 7 2 22 -4 32 -14 11 -10 28 -21 39 -25 10 -4 16 -13 13 -20 -3 -8 1 -14
9 -14 7 0 10 5 7 11 -4 6 1 5 10 -3 9 -7 14 -17 11 -22 -3 -5 0 -9 5 -9 31 0
159 -159 146 -181 -5 -7 -4 -10 2 -6 5 4 15 -4 21 -16 41 -86 54 -123 67 -184
17 -82 27 -223 15 -223 -4 0 -6 -9 -3 -20 16 -61 -51 -252 -126 -363 -62 -91
-160 -184 -173 -165 -8 10 -9 9 -5 -3 7 -20 -11 -39 -35 -39 -10 0 -18 -4 -18
-8 0 -9 -47 -34 -120 -65 -84 -36 -330 -72 -330 -48 0 4 -11 6 -25 3 -33 -6
-97 7 -90 18 3 5 -4 7 -16 5 -42 -8 -215 70 -289 131 -79 66 -210 219 -210
246 0 5 -9 30 -21 55 -11 25 -18 51 -15 59 3 9 1 12 -4 9 -6 -3 -10 0 -10 9 0
8 3 16 8 19 4 2 2 2 -5 1 -14 -4 -29 59 -17 77 4 7 3 10 -3 6 -14 -9 -25 103
-17 178 20 201 89 351 225 484 109 109 195 158 342 200 51 14 59 14 68 1 9
-13 10 -13 6 1 -4 12 3 16 30 17 20 1 39 4 42 8 8 8 138 -3 213 -17z"/>
<path d="M838 1524 c-2 -2 -31 -6 -63 -9 -94 -9 -139 -26 -255 -94 -151 -88
-247 -210 -304 -387 -17 -51 -37 -197 -31 -218 2 -6 6 -44 10 -85 3 -41 13
-90 20 -108 8 -18 13 -34 13 -36 -5 -6 65 -137 73 -137 5 0 9 -8 9 -17 0 -9
38 -53 84 -98 63 -62 103 -91 167 -123 47 -23 94 -42 105 -42 11 0 24 -4 30
-9 26 -24 222 -35 304 -17 13 3 39 7 57 8 18 1 33 6 33 10 0 4 6 8 14 8 21 0
138 63 193 103 98 72 181 179 228 294 58 145 64 275 22 478 -6 25 -69 149 -94
182 -30 42 -123 145 -123 137 0 -3 -10 5 -22 16 -54 50 -207 120 -298 135 -50
9 -167 15 -172 9z m249 -49 c104 -35 172 -75 251 -149 84 -78 151 -181 187
-287 25 -75 29 -98 29 -209 0 -111 -4 -134 -29 -209 -69 -204 -232 -367 -436
-436 -75 -25 -98 -29 -209 -29 -111 0 -134 4 -209 29 -204 69 -371 237 -438
439 -23 70 -27 98 -27 206 0 111 3 134 28 205 41 118 80 181 170 271 109 109
220 168 364 194 83 16 232 4 319 -25z"/>
<path d="M780 1400 c-118 -19 -203 -63 -298 -154 -73 -70 -121 -144 -153 -236
-17 -51 -22 -88 -22 -175 -1 -174 41 -284 156 -404 119 -123 243 -175 417
-175 169 0 280 44 399 157 123 118 175 243 175 417 0 79 -5 122 -22 175 -51
167 -206 325 -369 375 -73 23 -207 32 -283 20z m270 -39 c42 -23 59 -31 70
-31 19 0 125 -77 161 -117 47 -52 93 -121 108 -163 7 -19 18 -46 25 -59 6 -15
11 -80 11 -165 0 -158 -10 -193 -86 -307 -66 -99 -130 -146 -298 -223 -32 -15
-291 -14 -322 0 -13 6 -53 24 -88 40 -100 45 -199 147 -253 260 l-43 89 0 146
0 146 42 84 c23 46 61 106 85 133 45 52 173 142 217 153 14 3 31 9 36 13 19
15 60 18 185 16 85 -1 133 -6 150 -15z"/>
<path d="M983 1175 c-37 -40 -122 -136 -233 -265 -30 -35 -60 -68 -65 -74 -61
-63 -47 -86 53 -86 38 0 71 -3 75 -6 3 -3 -3 -26 -13 -50 -11 -24 -17 -44 -14
-44 3 0 -1 -12 -10 -27 -8 -16 -24 -54 -36 -86 -18 -46 -20 -60 -10 -72 22
-27 27 -24 115 80 96 113 128 150 156 180 74 82 119 137 119 146 0 6 -4 8 -9
5 -5 -3 -14 0 -20 7 -7 9 -32 13 -73 12 -35 -1 -66 0 -70 2 -9 5 29 111 63
175 5 10 9 23 9 28 0 6 9 29 20 52 11 22 17 38 13 35 -3 -4 -12 1 -19 11 -11
15 -16 13 -51 -23z m-3 -111 c-28 -71 -57 -144 -65 -161 l-15 -33 101 0 100 0
-148 -168 c-81 -92 -163 -185 -180 -207 -18 -22 -33 -37 -33 -34 0 3 25 72 55
153 30 80 55 148 55 151 0 2 -42 6 -94 7 l-95 3 171 195 c93 107 175 203 181
212 24 37 15 6 -33 -118z"/>
</g>
</svg>
